<?xml version="1.0" standalone="no"?>
<!DOCTYPE svg PUBLIC "-//W3C//DTD SVG 20010904//EN"
 "http://www.w3.org/TR/2001/REC-SVG-20010904/DTD/svg10.dtd">
<svg version="1.0" xmlns="http://www.w3.org/2000/svg"
 width="2400.000000pt" height="2400.000000pt" viewBox="0 0 2400.000000 2400.000000"
 preserveAspectRatio="xMidYMid meet">
<metadata>
Created by potrace 1.11, written by Peter Selinger 2001-2013
</metadata>
<g transform="translate(0.000000,2400.000000) scale(0.100000,-0.100000)"
fill="#000000" stroke="none">
<path d="M6809 22696 c-2 -2 -40 -7 -84 -11 -231 -19 -488 -88 -725 -192 -113
-50 -132 -61 -125 -73 2 -4 -23 -29 -58 -56 -390 -304 -696 -760 -887 -1324
-23 -69 -44 -132 -46 -140 -2 -8 -15 -55 -29 -105 -37 -134 -83 -336 -100
-440 -3 -16 -8 -43 -11 -58 -3 -16 -7 -38 -9 -50 -1 -12 -5 -42 -9 -67 -20
-141 -35 -263 -42 -344 -3 -35 -7 -81 -9 -102 -27 -265 -27 -958 0 -1294 2
-30 7 -91 10 -135 4 -44 8 -93 9 -110 2 -16 7 -68 11 -115 4 -47 9 -93 11
-103 2 -10 6 -48 10 -85 3 -36 8 -75 10 -87 2 -11 6 -44 10 -73 3 -29 7 -61 9
-70 1 -9 6 -42 10 -72 10 -84 9 -73 51 -335 33 -199 85 -478 109 -580 7 -33
17 -80 20 -105 4 -24 8 -47 10 -51 2 -3 11 -39 20 -80 9 -41 18 -81 20 -89 2
-8 13 -55 24 -105 11 -49 23 -99 27 -111 5 -19 -5 -23 -108 -53 -138 -41 -622
-200 -813 -269 -327 -117 -741 -285 -1004 -408 -51 -24 -95 -44 -97 -44 -7 0
-408 -201 -509 -255 -125 -67 -348 -195 -474 -273 -106 -65 -332 -212 -341
-222 -3 -3 -36 -28 -75 -55 -63 -44 -250 -185 -300 -226 -34 -29 -169 -143
-205 -174 -63 -54 -335 -329 -396 -400 -269 -310 -453 -610 -581 -945 -41
-110 -99 -323 -109 -405 -3 -22 -7 -45 -9 -52 -24 -73 -23 -403 0 -524 25
-128 36 -179 44 -209 6 -19 14 -51 19 -70 68 -252 224 -566 413 -831 143 -201
401 -487 600 -664 31 -28 71 -64 90 -80 19 -17 79 -66 134 -110 55 -44 102
-82 105 -85 17 -19 230 -171 370 -264 158 -106 424 -270 540 -334 30 -16 98
-53 150 -82 370 -205 1000 -487 1505 -673 323 -119 770 -268 1000 -333 33 -9
61 -18 63 -19 2 -1 -9 -54 -23 -116 -49 -214 -76 -334 -101 -454 -36 -174 -74
-365 -79 -400 -2 -17 -6 -42 -9 -55 -6 -28 -8 -37 -35 -205 -11 -66 -23 -142
-27 -170 -3 -27 -7 -52 -9 -55 -2 -3 -6 -34 -10 -70 -3 -36 -8 -72 -10 -80 -2
-8 -7 -40 -10 -70 -3 -30 -10 -86 -15 -125 -5 -38 -12 -97 -15 -130 -3 -33 -8
-80 -11 -105 -7 -65 -13 -134 -19 -220 -3 -41 -7 -88 -10 -105 -26 -199 -26
-1041 0 -1320 2 -22 7 -69 10 -105 3 -36 8 -81 10 -100 3 -19 7 -56 10 -82 7
-68 35 -255 50 -333 83 -444 201 -808 369 -1140 191 -376 442 -682 738 -899
67 -49 67 -49 52 -77 l-14 -28 69 -41 c171 -102 506 -222 686 -246 22 -3 46
-7 53 -10 8 -2 35 -7 60 -9 26 -3 79 -10 117 -14 65 -8 476 -6 555 2 125 14
289 40 445 73 217 45 654 183 820 259 17 7 91 39 165 71 518 221 1182 620
1784 1071 180 135 257 194 266 203 3 3 28 23 55 44 57 46 315 258 360 297 64
56 291 254 301 264 6 5 46 42 90 81 88 80 116 106 253 236 l93 89 57 -53 c31
-29 80 -76 110 -103 30 -28 63 -59 75 -70 62 -59 464 -406 539 -465 11 -8 24
-20 31 -25 6 -6 61 -50 121 -98 61 -49 117 -94 125 -100 8 -7 33 -26 55 -42
22 -17 45 -34 52 -40 99 -81 397 -295 613 -439 243 -162 314 -206 615 -382
162 -94 561 -291 735 -364 69 -28 134 -55 145 -60 192 -88 627 -214 940 -274
18 -3 125 -19 211 -31 140 -19 445 -25 609 -11 75 6 242 31 332 50 48 10 182
49 253 73 135 47 310 130 310 148 0 7 44 48 98 92 344 282 614 677 800 1173
62 164 150 454 168 555 2 13 15 76 29 141 14 65 28 138 31 163 3 25 8 49 10
52 1 3 6 37 9 75 4 38 9 71 10 74 2 3 6 33 10 65 3 33 8 74 10 90 2 17 7 62
10 100 3 39 8 88 10 110 25 277 26 1032 1 1275 -2 19 -7 82 -11 140 -4 57 -8
111 -10 120 -1 8 -6 56 -11 105 -4 50 -8 92 -9 95 -1 3 -5 41 -10 85 -5 44 -9
82 -10 85 -1 3 -5 37 -9 75 -5 39 -9 77 -11 85 -2 8 -6 38 -9 65 -9 68 -44
296 -62 400 -3 17 -12 68 -20 115 -11 65 -72 382 -88 455 -1 6 -5 24 -9 40 -4
17 -9 41 -11 55 -8 40 -43 197 -71 310 -14 58 -25 110 -25 117 0 7 33 22 73
33 638 185 1422 469 1902 689 33 15 89 41 125 57 81 36 536 263 610 305 30 17
84 47 120 66 36 20 133 76 215 126 806 484 1390 1015 1750 1592 81 130 178
322 228 455 43 115 94 281 102 334 3 21 7 42 10 46 2 4 7 32 11 61 3 30 8 57
10 60 15 26 24 333 11 414 -3 22 -8 58 -12 80 -27 177 -76 358 -143 525 -95
239 -244 492 -425 725 -39 50 -79 99 -88 110 -10 11 -38 42 -61 70 -67 76
-253 265 -353 355 -369 336 -872 682 -1417 974 -99 53 -505 256 -512 256 -4 0
-93 40 -231 105 -92 42 -167 75 -174 75 -5 0 -35 12 -67 26 -33 14 -68 29 -79
34 -11 4 -36 15 -55 23 -19 8 -66 27 -105 42 -38 15 -79 31 -90 35 -252 100
-783 282 -1065 365 -91 27 -169 52 -173 55 -4 4 4 60 18 126 57 263 67 310 70
329 11 65 35 190 39 204 3 9 7 34 11 56 3 22 13 78 21 125 18 94 20 107 29
165 3 22 9 65 15 95 5 30 11 73 14 95 3 22 14 103 25 180 11 77 22 167 26 200
6 58 12 112 20 185 2 19 7 64 10 100 3 36 8 83 10 105 2 22 6 83 10 135 4 52
8 113 10 136 6 70 17 432 18 574 0 134 -12 502 -18 550 -1 14 -6 70 -10 124
-4 55 -8 108 -10 117 -2 10 -7 49 -10 86 -4 37 -8 75 -10 83 -2 8 -7 40 -10
70 -5 46 -23 155 -51 305 -27 148 -89 390 -143 553 -133 403 -331 774 -558
1045 -116 137 -367 358 -496 436 l-37 23 -18 -22 -17 -21 -80 37 c-170 79
-437 160 -590 180 -27 3 -57 8 -66 9 -104 20 -493 27 -644 12 -100 -10 -270
-34 -357 -51 -285 -55 -552 -135 -873 -261 -337 -132 -750 -338 -1070 -533
-49 -31 -99 -60 -110 -66 -120 -67 -673 -444 -805 -549 -9 -7 -52 -39 -95 -72
-174 -131 -730 -584 -765 -624 -3 -3 -43 -40 -90 -81 -47 -41 -107 -96 -135
-122 -27 -25 -61 -56 -75 -68 -14 -12 -53 -48 -87 -81 l-61 -59 -89 84 c-118
112 -154 146 -263 246 -51 47 -98 90 -104 95 -21 20 -272 240 -331 291 -214
184 -562 460 -740 590 -38 27 -110 80 -160 116 -481 348 -1104 712 -1550 905
-44 19 -93 41 -110 48 -94 42 -517 198 -532 196 -2 0 -8 1 -15 4 -41 13 -199
56 -232 62 -11 2 -45 10 -75 18 -31 8 -69 16 -86 19 -16 3 -41 8 -55 11 -45 9
-206 35 -256 41 -27 3 -60 7 -74 10 -29 6 -505 15 -511 10z m541 -1041 c19 -3
76 -12 125 -20 132 -22 129 -21 270 -60 299 -82 672 -239 990 -417 161 -90
183 -103 325 -191 257 -160 517 -343 779 -546 68 -53 138 -107 156 -121 42
-32 228 -185 246 -202 8 -7 41 -35 74 -62 33 -28 80 -68 105 -90 25 -23 79
-70 120 -106 158 -138 348 -315 592 -552 l99 -96 -26 -29 c-15 -15 -52 -55
-83 -88 -31 -33 -102 -109 -157 -170 -54 -60 -106 -117 -115 -126 -8 -9 -40
-45 -71 -80 -31 -35 -96 -109 -144 -164 -48 -55 -104 -120 -124 -145 -20 -25
-41 -49 -47 -55 -14 -13 -291 -346 -369 -445 -33 -41 -66 -81 -73 -88 -7 -8
-25 -30 -40 -50 -15 -21 -29 -39 -32 -42 -4 -3 -44 -54 -91 -115 -47 -60 -109
-141 -139 -180 -95 -122 -358 -473 -367 -489 -9 -16 -31 -21 -133 -31 -36 -3
-81 -8 -100 -10 -19 -2 -66 -7 -105 -10 -38 -4 -81 -8 -95 -10 -14 -2 -49 -6
-77 -9 -96 -11 -156 -18 -172 -21 -9 -1 -47 -6 -86 -10 -38 -4 -77 -8 -85 -10
-8 -1 -42 -6 -75 -9 -33 -4 -71 -9 -85 -11 -36 -6 -86 -13 -155 -20 -33 -4
-62 -9 -65 -10 -3 -2 -30 -6 -60 -10 -30 -3 -109 -15 -175 -25 -66 -10 -138
-21 -160 -24 -45 -7 -86 -14 -130 -21 -16 -3 -46 -8 -65 -11 -19 -3 -73 -12
-120 -20 -47 -9 -148 -26 -225 -40 -77 -13 -149 -26 -160 -28 -22 -5 -427 -86
-460 -92 -11 -2 -110 -24 -220 -49 -110 -25 -214 -48 -230 -51 l-31 -6 -52
219 c-29 120 -57 241 -63 268 -6 28 -13 58 -15 68 -10 41 -71 339 -79 382 -2
17 -7 41 -10 55 -3 14 -17 90 -30 170 -33 187 -33 188 -40 235 -3 22 -10 65
-15 95 -8 50 -11 74 -26 190 -9 75 -15 116 -19 140 -5 26 -15 130 -20 190 -4
63 -17 194 -20 220 -12 81 -20 328 -19 625 0 339 6 485 29 655 3 19 7 55 10
80 8 58 14 99 20 130 3 14 7 39 9 55 15 110 75 343 131 505 39 114 173 394
218 455 128 175 190 246 298 338 113 97 187 130 384 173 36 8 88 16 155 24 69
8 361 5 420 -5z m9590 -174 c149 -25 327 -78 410 -122 44 -24 55 -24 66 1 9
20 10 20 49 -7 78 -55 204 -174 275 -262 230 -282 402 -730 470 -1223 6 -42
12 -85 14 -95 3 -16 13 -104 22 -203 22 -244 21 -745 -1 -1035 -1 -22 -6 -80
-9 -130 -3 -49 -8 -103 -11 -120 -2 -16 -7 -61 -11 -100 -3 -38 -7 -76 -9 -85
-2 -8 -6 -44 -10 -80 -3 -36 -8 -76 -10 -90 -2 -14 -7 -45 -10 -70 -3 -25 -8
-56 -10 -70 -2 -14 -7 -45 -10 -69 -3 -24 -16 -110 -30 -190 -13 -80 -26 -162
-30 -181 -3 -19 -10 -57 -15 -85 -5 -27 -12 -61 -14 -75 -42 -223 -124 -596
-167 -761 l-9 -36 -102 23 c-57 13 -115 26 -130 29 -16 3 -58 12 -95 21 -69
16 -468 97 -533 108 -19 3 -46 8 -60 11 -14 3 -74 14 -135 25 -60 11 -121 22
-135 25 -62 13 -309 53 -490 80 -19 3 -60 10 -90 15 -30 5 -77 12 -105 15 -27
3 -61 8 -75 10 -46 8 -84 14 -170 25 -47 6 -114 15 -150 20 -36 5 -85 12 -110
14 -25 3 -67 8 -95 11 -27 3 -61 8 -75 10 -14 2 -52 7 -85 10 -33 4 -78 9
-100 11 -42 5 -80 9 -180 19 -33 4 -71 8 -85 10 -14 2 -62 7 -108 10 -46 4
-91 8 -100 10 -9 2 -35 4 -57 5 -39 1 -42 4 -115 103 -327 448 -786 1039 -974
1258 -17 19 -40 46 -51 60 -40 48 -240 285 -266 314 -25 29 -48 54 -184 210
-33 37 -67 76 -75 85 -18 21 -160 177 -197 216 l-26 28 90 85 c89 86 265 249
357 332 27 24 61 55 75 68 14 13 48 42 75 65 27 22 56 48 65 56 9 9 45 40 81
70 36 29 70 59 75 64 34 36 551 442 645 506 12 8 52 37 88 64 330 242 850 548
1182 696 169 76 440 178 513 195 12 2 65 16 117 30 116 31 282 61 381 71 41 3
75 7 77 9 8 7 320 -4 382 -14z m-4924 -3113 c156 -175 438 -499 533 -613 9
-11 65 -78 125 -150 59 -71 113 -137 120 -145 12 -16 177 -221 227 -282 107
-132 148 -191 121 -175 -42 27 -2047 27 -2315 1 -37 -3 -47 -2 -41 8 15 24
209 263 409 503 184 221 223 267 280 331 11 12 43 48 70 80 28 32 57 65 65 74
8 9 33 36 54 60 140 160 307 340 316 340 4 0 20 -15 36 -32z m399 -2413 c193
-4 373 -8 400 -10 28 -1 133 -6 235 -10 102 -4 208 -8 235 -10 28 -2 104 -6
170 -10 66 -3 143 -8 170 -10 28 -2 102 -7 165 -11 63 -3 122 -8 130 -9 8 -2
27 -4 42 -4 23 -1 40 -21 119 -133 88 -128 460 -685 545 -819 227 -353 424
-679 591 -974 206 -364 254 -453 458 -835 77 -145 407 -807 482 -965 34 -71
73 -155 88 -186 l26 -57 -83 -173 c-112 -236 -402 -810 -500 -994 -45 -82 -99
-184 -121 -225 -22 -41 -59 -109 -82 -150 -23 -41 -57 -102 -75 -135 -18 -33
-44 -78 -56 -100 -67 -117 -73 -132 -57 -148 13 -13 7 -27 -52 -128 -36 -63
-80 -136 -97 -164 -17 -27 -63 -102 -101 -165 -39 -63 -96 -155 -127 -205 -31
-49 -92 -146 -136 -215 -166 -264 -514 -777 -526 -777 -7 0 -53 -3 -103 -8
-49 -4 -110 -9 -135 -10 -25 -2 -79 -6 -120 -9 -109 -8 -258 -18 -450 -31
-431 -27 -1016 -44 -1470 -44 -151 0 -333 2 -405 4 -182 4 -514 15 -615 20
-47 2 -143 7 -215 10 -71 3 -155 8 -185 10 -30 2 -98 7 -150 10 -156 9 -253
16 -290 20 -19 2 -75 7 -125 10 -135 10 -166 12 -169 16 -10 12 -283 416 -361
534 -328 497 -634 991 -823 1330 -147 263 -176 315 -217 390 -20 39 -66 122
-100 185 -139 254 -523 1013 -618 1221 l-35 77 51 108 c63 133 408 824 475
950 62 116 254 471 294 544 62 113 79 140 87 135 5 -2 78 111 162 252 183 304
182 302 239 393 25 39 50 79 55 88 53 91 495 764 635 967 35 50 88 126 118
170 30 44 73 105 95 135 22 30 41 56 42 57 3 5 71 12 170 18 55 4 118 9 140
10 45 4 200 14 318 21 43 2 111 6 150 8 63 4 225 12 462 21 39 2 252 6 475 10
223 4 407 9 409 11 2 2 7 2 10 0 3 -2 164 -7 356 -11z m3080 -234 c33 -5 83
-12 110 -16 28 -3 59 -8 70 -10 11 -2 40 -7 65 -10 25 -3 74 -10 110 -15 36
-6 99 -15 140 -21 41 -5 86 -12 100 -15 50 -8 156 -26 180 -29 14 -2 68 -11
120 -20 52 -9 109 -19 125 -22 34 -5 190 -33 220 -39 11 -3 31 -6 45 -9 36 -5
237 -44 290 -55 25 -5 56 -12 70 -14 14 -3 69 -14 124 -25 54 -12 108 -23 120
-25 18 -4 141 -31 186 -41 8 -2 18 -4 23 -4 13 -2 7 -26 -49 -202 -137 -432
-281 -847 -419 -1214 -21 -55 -43 -116 -50 -135 -7 -19 -52 -134 -100 -255
-48 -121 -96 -244 -107 -272 -11 -29 -24 -53 -29 -53 -4 0 -31 46 -60 103 -28
56 -70 136 -92 177 -91 172 -121 228 -147 275 -15 28 -44 82 -65 120 -62 114
-171 310 -261 466 -46 80 -84 148 -84 152 0 10 -376 641 -503 842 -52 83 -55
87 -159 250 -35 55 -67 106 -72 113 -9 15 15 16 99 3z m-6981 -8 c-27 -20
-744 -1179 -744 -1204 0 -5 -10 -13 -22 -18 -26 -10 -122 -174 -380 -646 -102
-188 -169 -313 -225 -422 -20 -40 -38 -71 -39 -70 -5 6 -168 417 -209 527 -25
69 -50 134 -55 145 -16 33 -125 330 -174 475 -26 74 -54 153 -63 175 -8 22
-57 168 -108 325 -52 157 -98 298 -104 313 -11 32 -15 29 79 51 59 14 78 17
148 31 13 2 31 6 40 9 9 3 31 8 47 11 48 8 75 14 93 19 9 3 34 8 56 10 21 3
46 8 55 10 25 8 371 74 416 80 22 2 47 7 55 10 8 3 29 7 45 10 17 2 111 18
210 35 99 16 194 32 210 35 17 2 127 19 245 36 118 18 251 37 295 44 102 15
143 18 129 9z m-3133 -794 c91 -294 247 -755 339 -1004 11 -27 41 -111 69
-185 121 -329 388 -991 507 -1255 7 -16 50 -111 94 -210 45 -99 82 -187 82
-195 1 -8 -36 -98 -81 -200 -46 -102 -92 -205 -103 -230 -11 -25 -29 -64 -39
-87 -11 -23 -19 -45 -19 -48 0 -3 -12 -32 -26 -63 -15 -31 -46 -104 -69 -162
-24 -58 -71 -172 -105 -255 -83 -203 -225 -573 -322 -840 -129 -354 -334 -970
-346 -1038 -7 -45 4 -46 -237 24 -1280 374 -2372 871 -3056 1390 -557 423
-878 858 -976 1323 -18 85 -24 271 -11 361 22 151 86 339 165 485 105 192 212
336 380 511 274 284 687 591 1093 812 30 16 74 40 97 53 23 14 136 71 251 129
196 98 281 137 477 222 44 19 96 41 115 50 130 57 530 210 665 255 33 10 69
23 80 28 81 35 902 291 919 286 5 -1 31 -72 57 -157z m13424 121 c77 -23 163
-47 190 -55 262 -73 1019 -339 1250 -440 17 -7 85 -36 153 -64 67 -29 156 -67
197 -86 41 -19 77 -35 80 -35 8 0 431 -212 510 -255 39 -21 108 -61 155 -88
47 -27 101 -59 120 -69 147 -84 498 -330 624 -438 95 -80 133 -116 241 -225
140 -140 168 -171 250 -280 122 -162 220 -340 277 -505 122 -350 92 -664 -100
-1037 -36 -71 -163 -269 -181 -283 -3 -3 -19 -23 -36 -45 -47 -64 -82 -102
-215 -235 -254 -254 -551 -475 -960 -715 -179 -104 -621 -327 -845 -425 -143
-63 -560 -231 -605 -245 -14 -4 -38 -13 -55 -20 -40 -18 -401 -143 -540 -188
-221 -71 -463 -145 -494 -152 -19 -4 -176 -49 -241 -69 l-45 -14 -22 67 c-228
703 -266 815 -360 1071 -49 132 -149 400 -161 430 -6 14 -52 131 -103 260 -50
129 -96 239 -100 245 -5 5 -9 15 -9 22 0 7 -11 36 -24 65 -13 29 -47 109 -76
178 -60 141 -150 347 -188 430 -14 30 -25 62 -24 70 0 8 14 44 30 80 224 485
565 1326 764 1884 132 372 382 1144 387 1199 1 11 7 10 156 -33z m-11650
-4355 c68 -129 171 -320 231 -430 13 -22 34 -61 48 -86 61 -113 88 -161 144
-259 33 -58 78 -139 100 -180 63 -121 342 -593 491 -830 22 -36 54 -87 71
-115 36 -59 38 -62 116 -184 33 -53 63 -101 67 -108 5 -8 -1 -10 -20 -8 -70
10 -190 27 -213 30 -14 3 -43 7 -65 10 -81 12 -232 36 -285 45 -30 5 -86 14
-125 20 -38 5 -79 12 -90 14 -18 3 -154 27 -240 41 -16 3 -50 9 -75 14 -25 5
-72 14 -105 20 -33 6 -96 18 -140 27 -44 9 -91 18 -105 20 -27 5 -315 64 -340
69 -8 2 -57 13 -109 24 -52 11 -97 24 -102 28 -10 10 202 649 331 998 86 234
297 778 329 850 10 22 22 50 26 63 4 13 8 22 10 20 2 -2 25 -44 50 -93z m9736
-218 c51 -128 102 -260 161 -417 11 -30 24 -64 29 -75 52 -124 380 -1080 391
-1140 3 -17 -37 -32 -127 -49 -16 -3 -42 -7 -57 -10 -16 -4 -38 -8 -50 -10
-13 -3 -70 -15 -128 -26 -58 -12 -116 -23 -130 -26 -14 -2 -36 -7 -50 -10 -14
-3 -36 -8 -50 -10 -14 -2 -36 -6 -50 -9 -14 -3 -38 -7 -55 -10 -16 -3 -52 -10
-80 -15 -27 -6 -63 -12 -80 -15 -56 -8 -100 -16 -150 -25 -27 -6 -67 -12 -89
-16 -21 -3 -48 -8 -60 -10 -24 -5 -263 -42 -316 -50 -19 -2 -44 -7 -56 -9 -11
-3 -40 -7 -65 -10 -24 -3 -81 -11 -126 -18 -46 -8 -83 -12 -83 -10 0 2 41 70
92 151 95 153 421 695 477 795 28 48 30 58 17 63 -21 8 -20 30 2 62 23 32 223
392 317 567 21 39 41 75 45 80 8 12 142 267 179 342 14 29 28 52 31 52 3 1 30
-63 61 -142z m-10713 -2684 c15 -3 32 -7 39 -9 32 -6 213 -46 248 -54 53 -12
162 -35 255 -54 110 -22 115 -23 395 -75 171 -32 195 -36 250 -45 17 -3 96
-16 177 -30 81 -14 162 -28 180 -30 18 -3 65 -10 103 -16 39 -6 90 -14 115
-16 25 -2 54 -7 66 -9 22 -5 140 -22 209 -31 22 -3 54 -7 70 -9 45 -7 252 -33
314 -40 30 -4 61 -8 70 -10 9 -1 48 -6 86 -9 39 -4 81 -8 95 -11 14 -2 52 -7
85 -10 33 -3 74 -8 90 -10 17 -2 66 -7 110 -10 43 -4 85 -10 92 -14 7 -4 90
-112 184 -241 95 -129 175 -237 178 -240 4 -3 18 -21 31 -40 14 -19 28 -39 33
-45 4 -5 64 -84 134 -175 224 -293 500 -634 777 -960 106 -125 96 -113 301
-345 39 -44 91 -102 116 -130 25 -27 68 -74 95 -104 90 -97 116 -125 177 -189
l61 -64 -115 -110 c-177 -170 -245 -235 -364 -343 -60 -55 -112 -102 -115
-105 -9 -10 -245 -214 -300 -260 -29 -25 -74 -62 -99 -84 -666 -559 -1397
-1029 -1971 -1266 -69 -28 -134 -55 -145 -60 -72 -32 -384 -125 -485 -144
-184 -35 -185 -35 -260 -43 -84 -10 -345 -10 -433 0 -78 9 -307 64 -321 78 -6
5 -15 9 -22 9 -10 0 -162 67 -173 76 -2 2 4 15 13 28 18 28 27 18 -94 105 -97
71 -230 217 -325 356 -49 71 -142 246 -184 345 -94 221 -186 603 -216 900 -4
36 -8 72 -10 81 -26 136 -26 997 0 1204 2 17 7 66 10 110 3 44 8 91 10 105 2
14 9 72 15 130 12 110 18 158 25 200 3 14 7 48 10 75 9 76 24 168 49 320 9 50
18 108 22 130 3 22 30 162 60 310 30 149 56 281 59 295 2 14 8 37 14 53 6 15
9 27 6 27 -2 0 1 15 6 33 5 17 12 46 15 62 5 28 91 386 100 413 3 12 14 12 82
-5z m11602 -18 c0 -2 12 -51 26 -107 14 -57 28 -110 30 -118 86 -377 102 -449
150 -685 4 -22 30 -162 44 -240 5 -27 11 -63 14 -80 16 -91 47 -294 60 -390 9
-60 18 -126 20 -145 3 -19 10 -80 16 -135 6 -55 13 -116 16 -135 6 -53 17
-193 30 -375 16 -220 8 -943 -11 -1015 -2 -8 -6 -52 -10 -98 -3 -45 -8 -88
-10 -95 -2 -6 -7 -30 -9 -52 -3 -22 -7 -51 -10 -65 -3 -14 -7 -43 -11 -65 -13
-86 -69 -313 -104 -424 -108 -332 -249 -578 -446 -777 -106 -107 -192 -175
-253 -201 -96 -41 -264 -79 -391 -90 -184 -15 -368 -6 -551 28 -30 6 -64 12
-75 14 -99 16 -356 93 -520 155 -566 215 -1233 622 -1910 1164 -170 136 -447
368 -485 406 -3 3 -43 39 -90 80 -47 41 -90 79 -96 85 -6 5 -51 47 -100 92
-49 45 -133 124 -186 175 l-98 93 57 60 c106 113 149 160 268 295 188 212 332
380 470 545 28 33 58 69 67 80 9 11 62 76 118 145 56 69 109 134 118 145 60
71 336 429 489 635 101 135 187 250 192 256 5 6 26 35 47 65 21 30 42 59 47
64 12 15 108 149 147 205 30 43 40 50 70 51 19 0 44 2 55 3 11 2 54 6 95 10
41 5 89 10 105 12 17 2 53 6 80 9 28 3 68 8 90 11 22 2 58 7 80 9 219 27 470
62 725 100 14 2 41 6 60 9 62 9 294 47 320 51 14 3 67 12 118 20 51 9 153 27
225 41 73 13 143 27 157 29 14 2 50 9 80 15 30 6 66 13 80 16 14 2 36 7 50 10
14 3 34 8 45 10 11 2 55 11 98 20 42 8 87 17 100 20 12 2 63 13 112 24 50 12
106 24 125 27 19 3 37 7 39 9 6 6 31 5 31 -1z m-4340 -572 c0 -13 -531 -681
-686 -863 -12 -14 -75 -88 -140 -165 -118 -140 -367 -425 -436 -500 -20 -22
-55 -60 -77 -85 -27 -29 -44 -41 -49 -34 -7 11 -143 162 -187 208 -166 173
-672 771 -979 1156 -103 129 -194 243 -202 253 -7 9 -14 20 -14 23 0 3 71 3
158 0 714 -27 1588 -27 2352 0 96 3 176 7 177 8 4 3 83 3 83 -1z"/>
<path d="M10657 15013 c-2 -4 -8 -37 -11 -72 -4 -36 -9 -67 -10 -70 -2 -3 -7
-31 -11 -61 -3 -30 -8 -62 -10 -70 -3 -8 -7 -33 -9 -55 -3 -23 -13 -86 -22
-140 -16 -104 -17 -107 -29 -190 -4 -27 -9 -57 -10 -67 -2 -9 -7 -38 -11 -65
-3 -26 -8 -57 -10 -68 -2 -10 -6 -37 -9 -60 -3 -22 -8 -51 -10 -65 -3 -14 -7
-38 -9 -55 -14 -88 -58 -375 -62 -405 -7 -50 -13 -87 -24 -150 -5 -30 -12 -73
-15 -95 -3 -22 -12 -83 -21 -135 -8 -52 -17 -113 -20 -135 -3 -22 -9 -62 -14
-90 -5 -27 -12 -68 -15 -90 -10 -67 -35 -229 -39 -255 -3 -14 -14 -88 -26
-165 -11 -77 -22 -149 -24 -160 -2 -11 -6 -41 -10 -66 -4 -25 -9 -57 -11 -70
-4 -23 -43 -278 -50 -326 -2 -13 -6 -42 -10 -65 -4 -24 -8 -54 -10 -68 -6 -40
-15 -93 -20 -120 -2 -14 -7 -43 -10 -65 -3 -23 -7 -50 -9 -61 -2 -12 -7 -45
-11 -75 -4 -30 -8 -56 -10 -59 -2 -3 -6 -30 -10 -60 -3 -30 -8 -62 -10 -70 -2
-8 -7 -35 -10 -60 -6 -41 -14 -99 -31 -205 -5 -37 -29 -86 -91 -192 -23 -39
-23 -48 0 -44 4 0 7 -2 7 -7 0 -10 -43 -37 -55 -34 -6 1 -11 -7 -11 -18 0 -16
7 -20 37 -20 20 0 42 -7 49 -15 7 -8 16 -15 21 -15 5 0 64 -30 132 -66 67 -37
165 -89 217 -117 52 -27 126 -67 163 -89 38 -21 70 -38 72 -38 2 0 57 -29 122
-64 65 -35 154 -82 198 -106 44 -23 108 -58 143 -76 107 -58 184 -100 267
-144 142 -75 256 -137 425 -228 l165 -90 85 45 c47 25 112 60 145 78 96 52
553 298 640 345 44 23 94 50 110 60 17 9 73 40 125 68 52 28 246 132 430 231
184 100 344 181 354 181 11 0 16 3 12 7 -3 4 4 13 16 20 l23 12 -22 1 c-15 0
-24 7 -27 23 -9 40 -43 259 -66 415 -5 37 -12 78 -14 92 -3 14 -7 43 -10 65
-3 22 -8 51 -11 65 -3 14 -8 45 -11 70 -3 25 -8 54 -10 65 -2 10 -6 37 -9 60
-3 22 -10 65 -15 95 -5 30 -12 75 -15 100 -4 25 -15 97 -25 160 -22 136 -25
153 -45 290 -17 109 -22 139 -30 179 -2 14 -7 47 -10 74 -3 27 -12 85 -20 130
-7 45 -16 102 -20 127 -3 25 -8 56 -10 70 -3 14 -7 41 -10 60 -3 19 -8 46 -10
60 -3 14 -7 41 -9 60 -2 19 -7 51 -10 70 -12 73 -26 161 -56 355 -17 110 -33
211 -35 225 -3 14 -7 43 -10 65 -3 22 -8 51 -11 65 -2 14 -6 41 -9 60 -2 19
-9 59 -15 89 -5 29 -10 56 -10 59 0 3 -42 -36 -92 -85 -51 -50 -111 -108 -134
-129 -23 -22 -124 -118 -225 -215 -101 -97 -222 -212 -269 -257 -65 -62 -88
-78 -96 -69 -6 7 -47 82 -91 167 -81 155 -133 256 -223 425 -26 50 -70 133
-97 185 -124 235 -146 276 -150 283 -6 10 -19 -9 -68 -98 -20 -38 -43 -77 -51
-85 -7 -9 -17 -24 -21 -35 -16 -39 -214 -384 -227 -395 -11 -8 -28 15 -83 112
-38 68 -150 263 -248 433 -98 171 -256 447 -353 615 -197 344 -178 314 -185
303z"/>
</g>
</svg>
